<svg width="64" height="64" viewBox="0 0 64 64" fill="none" xmlns="http://www.w3.org/2000/svg">
<g clip-path="url(#clip0_10_12)">
<rect width="64" height="64" rx="8" fill="white"/>
<path d="M42.6563 9.88429C44.6049 9.88429 46.6063 9.74667 48.5387 10.0114C50.887 10.3331 53.1225 12.3957 53.8401 14.6138C54.4197 16.4052 54.4516 19.129 52.9232 20.4326C50.0922 22.8474 46.4283 23.3431 42.8197 23.0833C40.3722 22.9071 38.3337 21.9015 36.6469 20.2147C35.4465 19.0144 35.3034 17.5605 35.3034 15.9391C35.3034 14.5839 35.7293 14.455 36.774 13.6425C37.4714 13.1 39.419 10.0114 42.4145 10.0114" stroke="#171717" stroke-width="2.73649" stroke-linecap="round"/>
<path d="M14.3881 12.8255C15.0153 12.7627 15.7418 12.4608 16.3852 12.3353C17.6853 12.0816 19.0735 11.9923 20.3975 12.0085C22.8263 12.0381 24.4842 13.4082 26.1165 15.0767C27.0833 16.0651 28.482 18.2781 27.5508 19.6882C26.049 21.9623 22.5676 22.2282 20.1978 22.8745C18.2824 23.3969 15.9717 23.1759 14.152 22.3752C13.4972 22.0871 11.9941 21.2768 11.7737 20.5052C11.4913 19.5168 11.2427 18.4298 11.5286 17.4006C11.8725 16.1624 12.3226 14.1889 13.3154 13.527" stroke="#171717" stroke-width="2.73649" stroke-linecap="round"/>
<path d="M19.9608 16.7419C20.7318 16.6562 22.2484 16.0775 22.2484 17.2411C22.2484 18.1711 21.9618 19.0294 20.9049 19.0294C19.9884 19.0294 19.634 19.085 19.634 18.049C19.634 16.7647 19.6253 16.4104 21.1228 16.6057C22.0473 16.7263 24.9623 18.7967 22.8112 19.3199C22.2874 19.4473 21.7836 19.344 21.3588 19.0204C21.2572 18.943 20.3032 17.9861 20.7143 17.8947C21.5835 17.7016 21.9582 17.9995 21.7219 18.866C21.4823 19.7446 20.6144 18.6936 20.6144 18.2124" stroke="#171717" stroke-width="2.73649" stroke-linecap="round"/>
<path d="M47.7049 14.8108C48.8802 14.8108 50.9729 14.7835 50.9729 16.4811C50.9729 17.5345 50.1969 17.9949 49.3298 18.4056C48.7574 18.6768 47.3352 19.4256 46.6882 18.9866C46.1623 18.6297 46.3977 17.4019 46.3977 16.8715C46.3977 16.199 46.6013 15.7882 47.2147 15.4644C48.4256 14.8254 49.4956 14.9796 49.7928 16.3541C50.0853 17.7068 47.9747 18.3886 47.3781 17.2618C46.7953 16.1609 48.0769 16.9841 48.0317 17.752C48.0194 17.9609 47.5924 18.0036 47.5506 17.8156C47.4594 17.4053 47.4742 16.8285 47.8683 16.6082C49.0917 15.9246 48.2552 16.935 49.0121 16.935" stroke="#171717" stroke-width="2.73649" stroke-linecap="round"/>
<path d="M31.8716 25.4072C31.9313 26.3029 32.1733 27.2024 32.4253 28.0579C33.5349 31.8247 35.0029 35.5558 36.4649 39.1963C37.8295 42.5941 39.4552 45.9288 40.3955 49.4813C40.5487 50.0598 40.906 51.2341 40.7496 51.8597C40.6608 52.2146 32.7942 51.8779 32.4525 51.8779C27.4643 51.8779 22.4777 52.0413 17.4924 52.0413" stroke="#171717" stroke-width="2.73649" stroke-linecap="round"/>
</g>
<defs>
<clipPath id="clip0_10_12">
<rect width="64" height="64" fill="white"/>
</clipPath>
</defs>
</svg>
