<svg width="673" height="850" viewBox="0 0 673 850" fill="none" xmlns="http://www.w3.org/2000/svg">
<path d="M667.425 321.346C670.061 321.049 672.424 323.057 672.424 325.71V849.072H21.0029V516.065C21.0029 508.129 28.7935 502.194 35.4186 506.564C43.4813 511.882 48.6236 519.549 52.39 530.277C52.8094 531.472 53.0038 532.735 53.0038 534.001V817.072H172.881C209.68 810.347 282.746 793.251 330.888 757.441C332.719 756.079 335.317 756.462 336.675 758.296C346.789 771.96 359.209 785.262 373.702 798.252C375.474 799.839 375.514 802.614 373.734 804.192C371.649 806.042 369.528 807.855 367.374 809.631C364.404 812.082 366.094 817.072 369.945 817.072H404.095C407.98 817.072 409.615 812.045 406.521 809.697C381.547 790.743 361.431 771.438 346.69 751.652L346.714 751.759C343.367 748.926 304.14 709.244 280.927 696.004C223.502 663.25 186.964 711.148 104.862 571.788C103.543 569.55 104.607 566.577 107.124 565.93C175.401 548.373 303.949 560.049 305.691 669.265C305.744 672.529 309.459 680.517 314.517 689.632C315.636 691.647 319.026 690.326 318.706 688.044C317.882 682.166 317.541 676.298 317.682 670.45H317.679C318.336 643.054 329.687 618.19 346.017 596.992C347.807 594.668 351.385 595.123 352.571 597.806C359.966 614.538 365.191 630.821 367.902 646.378C368.702 650.97 368.065 655.649 367.063 660.201C366.511 662.707 366.128 665.175 365.9 667.607C365.097 676.318 366.234 685.141 369.393 694.299C376.944 716.19 396.474 741.092 431.689 768.496C464.09 793.709 552.347 812.387 576.143 817.072H640.424V325.71C640.424 323.176 642.732 321.255 645.247 321.563C652.585 322.462 660.069 322.173 667.425 321.346ZM134.191 263.039C142.396 222.551 172.897 160.411 202.943 167.858C232.989 175.305 197.45 220.499 186.515 252.462C209.758 219.02 270.887 180.056 287.423 209.274C302.409 235.757 243.081 267.135 217.857 291.511C250.843 281.313 300.402 270.684 303.718 299.06C306.882 326.143 266.865 344.791 232.971 354.081C231.389 354.515 230.944 356.561 232.209 357.605C233.906 359.005 235.61 360.424 237.32 361.859C237.467 361.983 237.615 362.107 237.763 362.23C252.36 374.502 267.407 388.06 282.336 402.641C282.4 402.703 282.464 402.766 282.527 402.828C283.579 403.856 284.631 404.89 285.682 405.928C285.906 406.15 286.132 406.372 286.356 406.595C286.658 406.894 286.96 407.193 287.262 407.493C287.459 407.689 287.656 407.886 287.853 408.082C289.527 409.748 291.199 411.427 292.867 413.118C294.039 414.306 295.209 415.5 296.378 416.7C297.374 417.723 298.369 418.751 299.362 419.782C299.58 420.009 299.799 420.236 300.017 420.463C300.37 420.831 300.723 421.2 301.076 421.568C301.291 421.793 301.507 422.018 301.722 422.243C302.124 422.665 302.526 423.087 302.928 423.51C303.141 423.734 303.354 423.96 303.567 424.185C303.934 424.571 304.301 424.959 304.667 425.347C305.028 425.73 305.39 426.113 305.751 426.497C305.926 426.684 306.103 426.871 306.278 427.058C306.727 427.536 307.174 428.015 307.622 428.495C307.848 428.737 308.075 428.98 308.301 429.223C309.451 430.459 310.6 431.702 311.745 432.949C311.879 433.095 312.013 433.242 312.147 433.388C313.244 434.584 314.338 435.785 315.429 436.991C315.686 437.275 315.942 437.561 316.199 437.846C316.469 438.145 316.739 438.445 317.009 438.745C317.395 439.175 317.781 439.605 318.166 440.036C318.398 440.296 318.631 440.557 318.863 440.817C319.199 441.194 319.535 441.572 319.87 441.949C320.104 442.213 320.338 442.477 320.572 442.741C320.95 443.168 321.328 443.596 321.705 444.024C321.855 444.195 322.005 444.366 322.155 444.536C323.053 445.557 323.948 446.581 324.841 447.608C325.123 447.933 325.406 448.259 325.687 448.585C327.076 450.189 328.458 451.802 329.833 453.421C329.949 453.558 330.067 453.695 330.184 453.832C330.575 454.294 330.966 454.757 331.356 455.22C331.533 455.43 331.711 455.64 331.888 455.85C332.292 456.33 332.695 456.812 333.098 457.293C333.242 457.466 333.388 457.639 333.533 457.812C339.134 464.521 344.609 471.346 349.918 478.27C369.234 503.46 386.862 530.6 400.426 558.723C400.571 559.025 400.718 559.327 400.862 559.629C401.105 560.137 401.346 560.646 401.587 561.154C401.748 561.495 401.909 561.837 402.069 562.178C402.287 562.642 402.504 563.107 402.72 563.571C402.903 563.966 403.084 564.361 403.266 564.756C403.509 565.287 403.753 565.818 403.994 566.35C404.282 566.986 404.569 567.623 404.852 568.26C404.982 568.55 405.11 568.841 405.238 569.132C405.51 569.746 405.779 570.361 406.046 570.976C406.189 571.305 406.332 571.636 406.475 571.966C406.703 572.496 406.93 573.028 407.155 573.559C407.285 573.865 407.417 574.172 407.546 574.479C407.892 575.301 408.234 576.123 408.572 576.946C408.658 577.154 408.741 577.363 408.826 577.57C409.028 578.065 409.231 578.558 409.43 579.053C414.062 587.727 418.035 596.246 421.392 604.603C474.479 544.039 439.676 421.078 609.866 418.977C612.201 418.949 614.162 420.942 613.944 423.267C606.216 505.932 567.048 586.875 474.633 591.05C459.44 591.736 444.996 605.261 436.054 620.48C431.782 627.752 431.664 636.499 433.171 644.797C439.496 679.629 434.835 711.062 422.755 738.629C421.68 741.082 418.521 741.703 416.574 739.864C396.863 721.248 385.655 704.648 380.737 690.392C379.719 687.441 379.083 683.973 378.657 680.209C379.772 671.134 379.869 661.78 379.003 652.177C377.74 638.237 374.466 623.868 369.474 609.255C369.454 609.197 369.434 609.139 369.414 609.081C368.65 606.851 367.845 604.615 367.002 602.374C366.363 600.677 365.702 598.974 365.018 597.267C364.811 596.752 364.602 596.238 364.392 595.724C363.017 592.356 361.561 588.987 360.028 585.618C348.218 559.678 331.625 533.297 311.827 507.478C308.167 502.705 304.417 497.976 300.593 493.3C300.435 493.107 300.277 492.915 300.119 492.723C298.665 490.949 297.2 489.183 295.725 487.425C295.019 486.584 294.311 485.745 293.601 484.907C292.023 483.047 290.434 481.195 288.836 479.354C280.317 469.538 271.505 459.983 262.546 450.762C262.407 450.619 262.269 450.476 262.13 450.333C257.009 445.072 251.84 439.92 246.65 434.892C246.266 434.519 245.881 434.147 245.496 433.775C241.549 429.966 237.59 426.229 233.632 422.57C233.144 422.119 232.655 421.67 232.168 421.222C231.701 420.793 231.235 420.364 230.768 419.938C230.111 419.336 229.454 418.737 228.798 418.141C225.133 414.81 221.472 411.548 217.825 408.36C217.046 407.68 216.268 407.003 215.491 406.329C215.187 406.065 214.883 405.802 214.579 405.539C212.947 404.129 211.32 402.734 209.698 401.356C208.67 400.484 207.644 399.617 206.619 398.757C204.948 397.354 202.416 399.337 203.307 401.329C221.333 441.616 235.834 514.998 195.22 523.767C151.153 533.28 141.644 468.286 142.398 434.599C135.307 474.357 107.197 551.486 78.8954 534.214C50.594 516.94 80.5871 450.624 95.6952 420.591C78.6771 441.176 17.6816 479.316 2.86809 459.922C-11.9448 440.527 40.7479 382.144 78.871 371.043C47.7807 362.783 -6.59666 391.694 0.659105 349.908C8.68067 303.716 81.1652 308.806 95.7695 316.191C78.2222 294.945 56.3393 240.196 83.3993 218.439C104.683 201.328 125.81 241.537 134.191 263.039ZM192.024 591.05C191.297 591.011 191.32 592.111 192.022 592.306C211.798 599.605 229.136 612.182 245.673 624.812C253.158 630.753 260.528 636.79 267.321 643.538C268.508 644.719 269.709 645.974 270.839 647.207C271.058 647.447 271.353 647.618 271.679 647.665C272.005 647.713 272.333 647.636 272.596 647.45C272.859 647.262 273.039 646.976 273.101 646.652C273.162 646.328 273.097 645.994 272.941 645.709C272.111 644.189 271.168 642.646 270.207 641.19C264.673 632.864 257.56 625.721 249.813 619.577C237.567 610.21 207.406 591.864 192.024 591.05ZM426.043 40.2295C449.165 32.4256 479.364 88.9069 491.573 118.124C503.746 87.3967 535.84 63.8097 561.746 83.9166C587.653 104.024 549.76 130.704 538.102 151.73C563.462 148.247 617.292 147.359 629.73 171.671C642.167 195.984 599.168 204.138 576.113 205.176C611.826 225.938 679.889 272.713 666.443 293.716C652.993 314.716 596.105 278.74 569.342 258.126C593.557 290.872 637.502 362.478 604.523 368.764C574.632 374.458 537.293 306.993 522.301 275.281C521.375 309.795 512.537 377.329 484.599 371.365C457.9 365.663 453.634 295.914 455.778 258.524C455.881 256.719 453.733 255.702 452.412 256.937C418.295 288.812 404.042 317.883 399.232 343.767C393.958 372.152 399.398 399.917 408.477 428.53C417.491 456.936 430.114 484.547 435.377 514.024C437.971 528.554 438.649 544.121 434.45 559.67C432.935 565.279 430.839 570.68 428.148 575.861C426.644 578.757 422.545 578.377 421.29 575.365C411.409 551.665 398.65 528.729 384.462 507.112C378.25 485.428 369.543 464.539 362.724 443.048C352.792 411.749 344.615 374.946 352.038 334.997C360.467 289.641 387.239 252.053 420.108 221.43C421.562 220.075 420.409 217.574 418.436 217.817C375.18 223.153 312.73 221.43 309.592 179.312C306.779 141.571 379.331 146.374 410.994 157.897C375.614 138.423 311.216 94.1601 336.655 72.8975C362.097 51.6371 415.65 94.2128 439.247 118.159C425.211 95.4352 402.922 48.0366 426.043 40.2295ZM537.783 484.437C538.223 484.012 537.758 483.324 537.24 483.647C537.223 483.658 537.206 483.668 537.189 483.679C521.626 494.256 508.898 508.205 497.301 522.767C492.062 529.497 487.313 536.713 483.602 544.494C482.929 545.907 482.309 547.32 481.768 548.718C481.651 549.019 481.627 549.356 481.725 549.669C481.822 549.982 482.032 550.243 482.311 550.398C482.591 550.554 482.924 550.593 483.241 550.511C483.558 550.428 483.832 550.229 484.025 549.971C484.899 548.82 485.818 547.646 486.762 546.458C492.001 539.947 497.409 533.493 502.56 526.875C513.988 512.535 524.968 497.679 537.783 484.437ZM149.192 386.5C196.73 373.74 196.279 285.597 148.589 298.392C112.041 304.982 97.5788 399.018 149.192 386.5ZM535.211 202.005C538.771 166.464 454.634 120.06 448.35 175.374C441.757 228.573 528.59 255.371 535.211 202.005Z" fill="black"/>
<path d="M402.886 30.5658C400.007 33.8499 395.805 36.0519 391.488 35.3915C376.889 33.1584 361.937 32 346.714 32C233.903 32 135.946 95.6008 86.7449 188.902C85.1651 191.897 82.4028 194.055 79.2951 195.401C75.939 196.855 72.6919 198.819 69.6152 201.293C45.7176 220.506 46.675 251.33 51.3915 272.328C54.2824 285.199 46.1616 290.456 36.2264 292.697C29.1011 294.304 23.1041 287.793 24.1075 280.558C46.0903 122.043 182.15 0 346.714 0L348.82 0.00683594C373.38 0.162429 397.294 3.03638 420.277 8.34278C423.041 8.98072 424.18 12.2137 422.165 14.2086C416.059 20.2521 408.494 24.1699 402.886 30.5658Z" fill="black"/>
</svg>
