<svg width="259" height="157" viewBox="0 0 259 157" fill="none" xmlns="http://www.w3.org/2000/svg">
<path d="M62.308 124.85C55.8483 104.824 51.8795 83.1136 55.1969 62.0717C60.3996 29.0715 82.1171 1.2317 117.419 2.01619C132.828 2.35861 147.951 8.75172 161.308 16.0162C177.006 24.5534 188.565 34.5452 196.141 50.9606C202.172 64.0264 205.31 79.2648 204.141 93.6829C203.521 101.331 199.365 104.735 196.308 110.85" stroke="black" stroke-width="3" stroke-linecap="round"/>
<path d="M102.786 51.6665C98.947 51.6665 95.0039 51.3954 91.1966 51.9169C86.57 52.5507 82.1656 56.6145 80.7517 60.9847C79.6098 64.5142 79.5468 69.8806 82.5581 72.449C88.136 77.2066 95.3546 78.1834 102.464 77.6715C107.286 77.3243 111.303 75.3431 114.626 72.0198C116.991 69.6549 117.273 66.7903 117.273 63.5959C117.273 60.9257 116.434 60.6718 114.376 59.071C113.002 58.0022 110.548 57.0439 108.903 56.4955" stroke="black" stroke-width="3" stroke-linecap="round"/>
<path d="M158.48 57.4613C157.245 57.3377 155.813 56.7428 154.546 56.4955C151.984 55.9957 149.249 55.8198 146.641 55.8516C141.855 55.91 138.589 58.6094 135.373 61.8968C133.468 63.844 130.712 68.2041 132.547 70.9824C135.506 75.4628 142.365 75.9867 147.034 77.2601C150.808 78.2893 155.36 77.8539 158.946 76.2764C160.236 75.7087 163.197 74.1122 163.631 72.5921C164.188 70.6447 164.678 68.503 164.114 66.4754C163.437 64.0357 161.402 62.9504 159.446 61.6464" stroke="black" stroke-width="3" stroke-linecap="round"/>
<path d="M144.316 64.8657C142.796 64.697 139.808 63.5567 139.808 65.8494C139.808 67.6818 140.373 69.3728 142.455 69.3728C144.261 69.3728 144.959 69.4823 144.959 67.4412C144.959 64.9107 144.977 64.2126 142.026 64.5975C140.205 64.8351 134.462 68.9142 138.7 69.9451C139.732 70.1962 140.724 69.9927 141.561 69.3549C141.761 69.2024 143.641 67.3171 142.831 67.1372C141.118 66.7566 140.38 67.3435 140.846 69.0509C141.318 70.7818 143.028 68.7112 143.028 67.7631" stroke="black" stroke-width="3" stroke-linecap="round"/>
<path d="M92.1625 62.9341C89.8469 62.9341 85.7238 62.8804 85.7238 66.225C85.7238 68.3004 87.2527 69.2075 88.961 70.0166C90.0889 70.5509 92.891 72.0262 94.1656 71.1613C95.2018 70.4582 94.7379 68.0391 94.7379 66.9941C94.7379 65.6691 94.3368 64.8597 93.1283 64.2219C90.7425 62.9627 88.6344 63.2665 88.0489 65.9746C87.4726 68.6398 91.631 69.9832 92.8063 67.7631C93.9547 65.594 91.4296 67.216 91.5186 68.7289C91.5428 69.1405 92.3842 69.2246 92.4665 68.8541C92.6461 68.0458 92.6171 66.9094 91.8405 66.4754C89.4302 65.1284 91.0783 67.1193 89.587 67.1193" stroke="black" stroke-width="3" stroke-linecap="round"/>
<path d="M124.034 82.2501C123.916 84.0148 123.439 85.787 122.943 87.4725C120.757 94.894 117.864 102.245 114.984 109.418C112.295 116.112 109.092 122.682 107.24 129.681C106.938 130.821 106.234 133.135 106.542 134.367C106.717 135.067 122.216 134.403 122.889 134.403C132.717 134.403 142.542 134.725 152.364 134.725" stroke="black" stroke-width="3" stroke-linecap="round"/>
<path d="M70.271 130.862C64.4919 130.862 58.7597 131.506 52.9761 131.506C43.2883 131.506 33.6006 131.506 23.9128 131.506C18.7321 131.506 13.5513 131.506 8.37062 131.506C6.01532 131.506 4.07882 134.685 3.18393 136.514C-2.77262 148.686 15.3475 158.389 21.9812 146.78C23.3655 144.357 24.5774 142.078 25.7728 139.554C26.0708 138.925 26.1663 137.813 26.1663 137.122C26.1663 136.444 26.4012 132.632 26.1306 134.797C25.597 139.065 23.7871 143.553 24.6997 147.924C25.2209 150.42 28.0326 153.692 30.6913 154.005C36.7698 154.72 40.4159 146.711 41.5475 141.808C41.8444 140.521 41.6191 138.941 41.6191 137.622C41.6191 134.568 41.583 140.296 41.5475 140.842C41.2733 145.058 41.0503 148.771 43.8726 152.235C45.4276 154.143 47.9202 155.698 50.4543 155.293C54.8567 154.589 57.8404 147.682 58.3595 143.918C58.6115 142.091 59.0034 140.45 59.0034 138.588C59.0034 135.493 58.6326 144.928 59.6473 147.853C61.7438 153.896 67.33 155.215 73.1684 155.007C78.2961 154.824 81.3054 146.633 81.8606 142.469C82.2416 139.612 83.2389 135.676 82.3435 132.811C81.7424 130.888 81.4173 131.204 79.0705 131.184C76.5839 131.162 74.1183 130.862 71.6303 130.862C71.0065 130.862 69.9261 131.138 69.6272 130.54" stroke="black" stroke-width="3" stroke-linecap="round"/>
<path d="M181.338 131.828C184.573 132.282 187.844 132.15 191.103 132.15C201.226 132.15 211.351 132.074 221.472 132.328C229.448 132.529 237.45 132.615 245.42 132.972C248.101 133.093 250.766 133.437 253.451 133.437" stroke="black" stroke-width="3" stroke-linecap="round"/>
<path d="M182.304 132.472C182.181 134.93 181.432 137.315 181.481 139.804C181.559 143.799 183.912 147.474 187.383 149.391C189.584 150.606 192.929 151.777 195.503 151.394C198.096 151.009 199.311 148.073 199.831 145.85C200.519 142.908 200.421 133.78 200.332 136.8C200.21 140.939 199.12 145.391 203.229 147.996C205.791 149.62 211.818 151.53 213.352 147.763C214.128 145.859 214.718 143.908 214.801 141.843C214.814 141.514 214.727 138.291 214.998 139.178C216.828 145.192 220.288 151.902 227.302 152.682C231.364 153.133 232.78 151.53 234.707 148.318C235.829 146.448 237.032 144.383 237.032 142.129C237.032 140.681 237.032 139.232 237.032 137.783C237.032 137.082 237.032 136.98 237.032 137.837C237.032 140.28 237.754 143.02 239.035 145.098C240.993 148.277 245.537 152.606 249.587 152.753C252.057 152.843 254.422 152.936 255.543 150.321C257.543 145.655 257.315 139.236 255.06 134.725" stroke="black" stroke-width="3" stroke-linecap="round"/>
</svg>
